# Blender v2.93.5 OBJ File: ''
# www.blender.org
mtllib base.mtl
o Cube_Wood_0
v 21.947845 7.855687 -25.618238
v 21.947832 1.990405 -25.618252
v -17.757023 1.990405 -25.618261
v -17.757029 7.855687 -25.618250
v -24.607702 1.990411 20.937286
v -24.607712 7.855694 20.937283
v -24.607702 7.855688 -18.767580
v -24.607695 1.990406 -18.767590
v 21.947832 1.990412 27.787964
v 21.947813 7.855695 27.787977
v -17.757042 7.855695 27.787958
v -17.757036 1.990412 27.787958
v 21.947832 1.990405 -25.618252
v 21.947845 7.855687 -25.618238
v 25.373180 7.855688 -24.700422
v 25.373167 1.990405 -24.700436
v 25.373167 1.990405 -24.700436
v 25.373180 7.855688 -24.700422
v 27.880697 7.855688 -22.192902
v 27.880686 1.990406 -22.192913
v 27.880686 1.990406 -22.192913
v 27.880697 7.855688 -22.192902
v 28.798512 7.855688 -18.767565
v 28.798502 1.990406 -18.767576
v 28.798502 1.990411 20.937292
v 28.798487 7.855694 20.937307
v 27.880672 7.855695 24.362644
v 27.880686 1.990412 24.362629
v 27.880686 1.990412 24.362629
v 27.880672 7.855695 24.362644
v 25.373152 7.855695 26.870161
v 25.373167 1.990412 26.870148
v 25.373167 1.990412 26.870148
v 25.373152 7.855695 26.870161
v 21.947813 7.855695 27.787977
v 21.947832 1.990412 27.787964
v -17.757036 1.990412 27.787958
v -17.757042 7.855695 27.787958
v -21.182377 7.855695 26.870140
v -21.182371 1.990412 26.870142
v -21.182371 1.990412 26.870142
v -21.182377 7.855695 26.870140
v -23.689896 7.855695 24.362619
v -23.689888 1.990412 24.362619
v -23.689888 1.990412 24.362619
v -23.689896 7.855695 24.362619
v -24.607712 7.855694 20.937283
v -24.607702 1.990411 20.937286
v -24.607695 1.990406 -18.767590
v -24.607702 7.855688 -18.767580
v -23.689886 7.855688 -22.192917
v -23.689877 1.990406 -22.192926
v -23.689877 1.990406 -22.192926
v -23.689886 7.855688 -22.192917
v -21.182365 7.855688 -24.700436
v -21.182356 1.990405 -24.700445
v -21.182356 1.990405 -24.700445
v -21.182365 7.855688 -24.700436
v -17.757029 7.855687 -25.618250
v -17.757023 1.990405 -25.618261
v 28.798502 1.990406 -18.767576
v 28.798512 7.855688 -18.767565
v 28.798487 7.855694 20.937307
v 28.798502 1.990411 20.937292
v 21.947832 1.990405 -25.618252
v 25.373167 1.990405 -24.700436
v 27.880686 1.990406 -22.192913
v 28.798502 1.990406 -18.767576
v 28.798502 1.990411 20.937292
v 27.880686 1.990412 24.362629
v 25.373167 1.990412 26.870148
v 21.947832 1.990412 27.787964
v -17.757036 1.990412 27.787958
v -21.182371 1.990412 26.870142
v -23.689888 1.990412 24.362619
v -24.607702 1.990411 20.937286
v -24.607695 1.990406 -18.767590
v -23.689877 1.990406 -22.192926
v -21.182356 1.990405 -24.700445
v -17.757023 1.990405 -25.618261
v 28.798512 7.855688 -18.767565
v 27.880697 7.855688 -22.192902
v 25.373180 7.855688 -24.700422
v 21.947845 7.855687 -25.618238
v -17.757029 7.855687 -25.618250
v -21.182365 7.855688 -24.700436
v -23.689886 7.855688 -22.192917
v -24.607702 7.855688 -18.767580
v -24.607712 7.855694 20.937283
v -23.689896 7.855695 24.362619
v -21.182377 7.855695 26.870140
v -17.757042 7.855695 27.787958
v 21.947813 7.855695 27.787977
v 25.373152 7.855695 26.870161
v 27.880672 7.855695 24.362644
v 28.798487 7.855694 20.937307
vn 0.0000 0.0000 -1.0000
vn -1.0000 -0.0000 -0.0000
vn -0.0000 -0.0000 1.0000
vn 0.2588 0.0000 -0.9659
vn 0.7071 0.0000 -0.7071
vn 0.9659 -0.0000 -0.2588
vn 0.9659 0.0000 0.2588
vn 0.7071 0.0000 0.7071
vn 0.2588 -0.0000 0.9659
vn -0.2588 -0.0000 0.9659
vn -0.7071 -0.0000 0.7071
vn -0.9659 -0.0000 0.2588
vn -0.9659 0.0000 -0.2588
vn -0.7071 -0.0000 -0.7071
vn -0.2588 0.0000 -0.9659
vn 1.0000 -0.0000 0.0000
vn 0.0000 -1.0000 0.0000
vn -0.0000 1.0000 -0.0000
usemtl Wood
s off
f 1//1 2//1 3//1
f 1//1 3//1 4//1
f 5//2 6//2 7//2
f 5//2 7//2 8//2
f 9//3 10//3 11//3
f 9//3 11//3 12//3
f 13//4 14//4 15//4
f 13//4 15//4 16//4
f 17//5 18//5 19//5
f 17//5 19//5 20//5
f 21//6 22//6 23//6
f 21//6 23//6 24//6
f 25//7 26//7 27//7
f 25//7 27//7 28//7
f 29//8 30//8 31//8
f 29//8 31//8 32//8
f 33//9 34//9 35//9
f 33//9 35//9 36//9
f 37//10 38//10 39//10
f 37//10 39//10 40//10
f 41//11 42//11 43//11
f 41//11 43//11 44//11
f 45//12 46//12 47//12
f 45//12 47//12 48//12
f 49//13 50//13 51//13
f 49//13 51//13 52//13
f 53//14 54//14 55//14
f 53//14 55//14 56//14
f 57//15 58//15 59//15
f 57//15 59//15 60//15
f 61//16 62//16 63//16
f 61//16 63//16 64//16
f 77//17 75//17 76//17
f 75//17 77//17 78//17
f 75//17 78//17 74//17
f 74//17 78//17 79//17
f 74//17 79//17 73//17
f 73//17 79//17 80//17
f 73//17 80//17 72//17
f 72//17 80//17 65//17
f 72//17 65//17 66//17
f 72//17 66//17 71//17
f 71//17 66//17 67//17
f 71//17 67//17 70//17
f 70//17 67//17 68//17
f 70//17 68//17 69//17
f 90//18 88//18 89//18
f 88//18 90//18 87//18
f 87//18 90//18 91//18
f 87//18 91//18 86//18
f 86//18 91//18 92//18
f 86//18 92//18 85//18
f 85//18 92//18 93//18
f 85//18 93//18 84//18
f 84//18 93//18 94//18
f 84//18 94//18 83//18
f 83//18 94//18 95//18
f 83//18 95//18 82//18
f 82//18 95//18 96//18
f 82//18 96//18 81//18
