# Blender v2.93.5 OBJ File: ''
# www.blender.org
mtllib con03.mtl
o Cylinder.002_Grey_0
v 7.414861 114.193344 15.537498
v 7.895716 111.480026 4.837558
v 7.563320 111.866852 4.724528
v 7.082465 114.580170 15.424468
v 7.082465 114.580170 15.424468
v 7.563320 111.866852 4.724528
v 7.074279 112.038445 4.659038
v 6.593424 114.751762 15.358977
v 6.593424 114.751762 15.358977
v 7.074279 112.038445 4.659038
v 6.559630 111.948822 4.658634
v 6.078775 114.662148 15.358574
v 6.078775 114.662148 15.358574
v 6.559630 111.948822 4.658634
v 6.157274 111.622017 4.723426
v 5.676418 114.335335 15.423366
v 5.676418 114.335335 15.423366
v 6.157274 111.622017 4.723426
v 5.975020 111.145576 4.836052
v 5.494165 113.858894 15.535992
v 5.494165 113.858894 15.535992
v 5.975020 111.145576 4.836052
v 6.061706 110.647171 4.966334
v 5.580850 113.360489 15.666274
v 5.580850 113.360489 15.666274
v 6.061706 110.647171 4.966334
v 6.394101 110.260345 5.079364
v 5.913246 112.973663 15.779304
v 5.913246 112.973663 15.779304
v 6.394101 110.260345 5.079364
v 6.883142 110.088753 5.144855
v 6.402287 112.802071 15.844794
v 6.402287 112.802071 15.844794
v 6.883142 110.088753 5.144855
v 7.397791 110.178368 5.145258
v 6.916935 112.891685 15.845198
v 6.916935 112.891685 15.845198
v 7.397791 110.178368 5.145258
v 7.800148 110.505180 5.080466
v 7.319292 113.218498 15.780406
v 7.319292 113.218498 15.780406
v 7.800148 110.505180 5.080466
v 7.982401 110.981621 4.967840
v 7.501545 113.694939 15.667780
v 7.501545 113.694939 15.667780
v 7.982401 110.981621 4.967840
v 7.895716 111.480026 4.837558
v 7.414861 114.193344 15.537498
v -0.676612 110.676384 10.795080
v 8.575601 110.676384 10.795076
v 8.575601 111.942635 10.916666
v -0.676612 111.942635 10.916670
v -0.676612 111.942635 10.916670
v 8.575601 111.942635 10.916666
v 8.575600 113.100029 10.388843
v -0.676612 113.100029 10.388846
v -0.676612 113.100029 10.388846
v 8.575600 113.100029 10.388843
v 8.575600 113.838455 9.353035
v -0.676612 113.838455 9.353039
v -0.676612 113.838455 9.353039
v 8.575600 113.838455 9.353035
v 8.575600 113.960045 8.086787
v -0.676613 113.960045 8.086791
v -0.676613 113.960045 8.086791
v 8.575600 113.960045 8.086787
v 8.575600 113.432220 6.929389
v -0.676613 113.432220 6.929394
v -0.676613 113.432220 6.929394
v 8.575600 113.432220 6.929389
v 8.575599 112.396416 6.190966
v -0.676613 112.396416 6.190970
v -0.676613 112.396416 6.190970
v 8.575599 112.396416 6.190966
v 8.575600 111.130165 6.069376
v -0.676613 111.130165 6.069380
v -0.676613 111.130165 6.069380
v 8.575600 111.130165 6.069376
v 8.575600 109.972771 6.597198
v -0.676613 109.972771 6.597203
v -0.676613 109.972771 6.597203
v 8.575600 109.972771 6.597198
v 8.575600 109.234344 7.633006
v -0.676613 109.234344 7.633010
v -0.676613 109.234344 7.633010
v 8.575600 109.234344 7.633006
v 8.575600 109.112755 8.899253
v -0.676612 109.112755 8.899258
v -0.676612 109.112755 8.899258
v 8.575600 109.112755 8.899253
v 8.575600 109.640579 10.056651
v -0.676612 109.640579 10.056655
v -0.676612 109.640579 10.056655
v 8.575600 109.640579 10.056651
v 8.575601 110.676384 10.795076
v -0.676612 110.676384 10.795080
v -0.927383 109.993759 12.622315
v 5.118183 109.993759 12.622313
v 5.118183 112.265076 12.840413
v -0.927384 112.265076 12.840416
v -0.927384 112.265076 12.840416
v 5.118183 112.265076 12.840413
v 5.118183 114.341148 11.893635
v -0.927384 114.341148 11.893637
v -0.927384 114.341148 11.893637
v 5.118183 114.341148 11.893635
v 5.118183 115.665688 10.035665
v -0.927384 115.665688 10.035667
v -0.927384 115.665688 10.035667
v 5.118183 115.665688 10.035665
v 5.118182 115.883789 7.764345
v -0.927385 115.883789 7.764348
v -0.927385 115.883789 7.764348
v 5.118182 115.883789 7.764345
v 5.118181 114.937012 5.688274
v -0.927385 114.937012 5.688277
v -0.927385 114.937012 5.688277
v 5.118181 114.937012 5.688274
v 5.118181 113.079041 4.363733
v -0.927386 113.079041 4.363736
v -0.927386 113.079041 4.363736
v 5.118181 113.079041 4.363733
v 5.118181 110.807724 4.145632
v -0.927386 110.807724 4.145635
v -0.927386 110.807724 4.145635
v 5.118181 110.807724 4.145632
v 5.118181 108.731651 5.092410
v -0.927386 108.731651 5.092413
v -0.927386 108.731651 5.092413
v 5.118181 108.731651 5.092410
v 5.118182 107.407112 6.950379
v -0.927385 107.407112 6.950382
v -0.927385 107.407112 6.950382
v 5.118182 107.407112 6.950379
v 5.118182 107.189011 9.221698
v -0.927385 107.189011 9.221701
v -0.927385 107.189011 9.221701
v 5.118182 107.189011 9.221698
v 5.118183 108.135788 11.297770
v -0.927384 108.135788 11.297772
v -0.927384 108.135788 11.297772
v 5.118183 108.135788 11.297770
v 5.118183 109.993759 12.622313
v -0.927383 109.993759 12.622315
v 7.563320 111.866852 4.724528
v 7.895716 111.480026 4.837558
v 7.982401 110.981621 4.967840
v 7.800148 110.505180 5.080466
v 7.397791 110.178368 5.145258
v 6.883142 110.088753 5.144855
v 6.394101 110.260345 5.079364
v 6.061706 110.647171 4.966334
v 5.975020 111.145576 4.836052
v 6.157274 111.622017 4.723426
v 6.559630 111.948822 4.658634
v 7.074279 112.038445 4.659038
v 7.414861 114.193344 15.537498
v 7.082465 114.580170 15.424468
v 6.593424 114.751762 15.358977
v 6.078775 114.662148 15.358574
v 5.676418 114.335335 15.423366
v 5.494165 113.858894 15.535992
v 5.580850 113.360489 15.666274
v 5.913246 112.973663 15.779304
v 6.402287 112.802071 15.844794
v 6.916935 112.891685 15.845198
v 7.319292 113.218498 15.780406
v 7.501545 113.694939 15.667780
v 8.575601 111.942635 10.916666
v 8.575601 110.676384 10.795076
v 8.575600 109.640579 10.056651
v 8.575600 109.112755 8.899253
v 8.575600 109.234344 7.633006
v 8.575600 109.972771 6.597198
v 8.575600 111.130165 6.069376
v 8.575599 112.396416 6.190966
v 8.575600 113.432220 6.929389
v 8.575600 113.960045 8.086787
v 8.575600 113.838455 9.353035
v 8.575600 113.100029 10.388843
v -0.676612 110.676384 10.795080
v -0.676612 111.942635 10.916670
v -0.676612 113.100029 10.388846
v -0.676612 113.838455 9.353039
v -0.676613 113.960045 8.086791
v -0.676613 113.432220 6.929394
v -0.676613 112.396416 6.190970
v -0.676613 111.130165 6.069380
v -0.676613 109.972771 6.597203
v -0.676613 109.234344 7.633010
v -0.676612 109.112755 8.899258
v -0.676612 109.640579 10.056655
v 5.118183 112.265076 12.840413
v 5.118183 109.993759 12.622313
v 5.118183 108.135788 11.297770
v 5.118182 107.189011 9.221698
v 5.118182 107.407112 6.950379
v 5.118181 108.731651 5.092410
v 5.118181 110.807724 4.145632
v 5.118181 113.079041 4.363733
v 5.118181 114.937012 5.688274
v 5.118182 115.883789 7.764345
v 5.118183 115.665688 10.035665
v 5.118183 114.341148 11.893635
v -0.927383 109.993759 12.622315
v -0.927384 112.265076 12.840416
v -0.927384 114.341148 11.893637
v -0.927384 115.665688 10.035667
v -0.927385 115.883789 7.764348
v -0.927385 114.937012 5.688277
v -0.927386 113.079041 4.363736
v -0.927386 110.807724 4.145635
v -0.927386 108.731651 5.092413
v -0.927385 107.407112 6.950382
v -0.927385 107.189011 9.221701
v -0.927384 108.135788 11.297772
vn 0.7702 0.6256 -0.1240
vn 0.3489 0.9120 -0.2156
vn -0.1660 0.9541 -0.2494
vn -0.1659 0.9541 -0.2494
vn -0.6363 0.7405 -0.2164
vn -0.9362 0.3285 -0.1254
vn -0.9852 -0.1715 -0.0008
vn -0.7702 -0.6256 0.1240
vn -0.3489 -0.9120 0.2156
vn 0.1659 -0.9541 0.2494
vn 0.6363 -0.7405 0.2164
vn 0.9362 -0.3285 0.1254
vn 0.9852 0.1715 0.0008
vn 0.0000 -0.0956 0.9954
vn 0.0000 0.4149 0.9099
vn 0.0000 0.8143 0.5805
vn 0.0000 0.9954 0.0956
vn -0.0000 0.9099 -0.4149
vn -0.0000 0.5805 -0.8143
vn -0.0000 0.0956 -0.9954
vn -0.0000 -0.4149 -0.9099
vn -0.0000 -0.8143 -0.5805
vn -0.0000 -0.9954 -0.0956
vn 0.0000 -0.9099 0.4149
vn 0.0000 -0.5805 0.8143
vn 0.0435 -0.2456 -0.9684
vn -0.0435 0.2456 0.9684
vn 1.0000 0.0000 -0.0000
vn -1.0000 0.0000 0.0000
vn 0.0000 -0.9098 0.4150
usemtl Grey
s off
f 1//1 2//1 3//1
f 1//1 3//1 4//1
f 5//2 6//2 7//2
f 5//2 7//2 8//2
f 9//3 10//3 11//3
f 9//4 11//4 12//4
f 13//5 14//5 15//5
f 13//5 15//5 16//5
f 17//6 18//6 19//6
f 17//6 19//6 20//6
f 21//7 22//7 23//7
f 21//7 23//7 24//7
f 25//8 26//8 27//8
f 25//8 27//8 28//8
f 29//9 30//9 31//9
f 29//9 31//9 32//9
f 33//10 34//10 35//10
f 33//10 35//10 36//10
f 37//11 38//11 39//11
f 37//11 39//11 40//11
f 41//12 42//12 43//12
f 41//12 43//12 44//12
f 45//13 46//13 47//13
f 45//13 47//13 48//13
f 49//14 51//14 52//14
f 53//15 54//15 55//15
f 53//15 55//15 56//15
f 57//16 58//16 59//16
f 57//16 59//16 60//16
f 61//17 62//17 63//17
f 61//17 63//17 64//17
f 65//18 66//18 67//18
f 65//18 67//18 68//18
f 69//19 70//19 71//19
f 69//19 71//19 72//19
f 73//20 74//20 75//20
f 73//20 75//20 76//20
f 77//21 78//21 79//21
f 77//21 79//21 80//21
f 81//22 82//22 83//22
f 81//22 83//22 84//22
f 85//23 86//23 87//23
f 85//23 87//23 88//23
f 89//24 90//24 91//24
f 93//25 94//25 95//25
f 93//25 95//25 96//25
f 97//14 98//14 99//14
f 97//14 99//14 100//14
f 101//15 102//15 103//15
f 101//15 103//15 104//15
f 105//16 106//16 107//16
f 105//16 107//16 108//16
f 109//17 110//17 111//17
f 109//17 111//17 112//17
f 113//18 114//18 115//18
f 113//18 115//18 116//18
f 117//19 118//19 119//19
f 117//19 119//19 120//19
f 121//20 122//20 123//20
f 121//20 123//20 124//20
f 125//21 126//21 127//21
f 125//21 127//21 128//21
f 129//22 130//22 131//22
f 129//22 131//22 132//22
f 133//23 134//23 135//23
f 133//23 135//23 136//23
f 137//24 138//24 139//24
f 137//24 139//24 140//24
f 141//25 142//25 143//25
f 141//25 143//25 144//25
f 150//26 148//26 149//26
f 148//26 150//26 147//26
f 147//26 150//26 151//26
f 147//26 151//26 146//26
f 146//26 151//26 152//26
f 146//26 152//26 145//26
f 145//26 152//26 153//26
f 145//26 153//26 156//26
f 156//26 153//26 154//26
f 156//26 154//26 155//26
f 167//27 165//27 166//27
f 165//27 167//27 168//27
f 165//27 168//27 164//27
f 164//27 168//27 157//27
f 164//27 157//27 163//27
f 163//27 157//27 158//27
f 163//27 158//27 162//27
f 162//27 158//27 159//27
f 162//27 159//27 161//27
f 161//27 159//27 160//27
f 170//28 180//28 169//28
f 180//28 170//28 179//28
f 179//28 170//28 171//28
f 179//28 171//28 178//28
f 178//28 171//28 172//28
f 178//28 172//28 177//28
f 177//28 172//28 173//28
f 177//28 173//28 176//28
f 176//28 173//28 174//28
f 176//28 174//28 175//28
f 183//29 181//29 182//29
f 181//29 183//29 184//29
f 181//29 184//29 192//29
f 192//29 184//29 185//29
f 192//29 185//29 191//29
f 191//29 185//29 186//29
f 191//29 186//29 190//29
f 190//29 186//29 187//29
f 189//29 187//29 188//29
f 194//28 204//28 193//28
f 204//28 194//28 203//28
f 203//28 194//28 195//28
f 203//28 195//28 202//28
f 202//28 196//28 201//28
f 201//28 196//28 197//28
f 201//28 197//28 200//28
f 200//28 197//28 198//28
f 207//29 205//29 206//29
f 205//29 207//29 208//29
f 205//29 208//29 216//29
f 216//29 208//29 209//29
f 216//29 209//29 215//29
f 215//29 209//29 210//29
f 215//29 210//29 214//29
f 214//29 210//29 211//29
f 214//29 211//29 213//29
f 213//29 211//29 212//29
s 1
f 49//14 50//14 51//14
f 89//30 91//30 92//30
f 190//29 187//29 189//29
f 202//28 195//28 196//28
f 200//28 198//28 199//28
