# Blender v2.93.5 OBJ File: ''
# www.blender.org
mtllib con01.mtl
o Cylinder.003_Grey_0
v 7.414859 34.920704 -2.718876
v 7.895718 24.829426 1.755142
v 7.563322 24.652956 1.392835
v 7.082463 34.744236 -3.081183
v 7.082463 34.744236 -3.081183
v 7.563322 24.652956 1.392835
v 7.074281 24.559542 1.234699
v 6.593422 34.650822 -3.239319
v 6.593422 34.650822 -3.239319
v 7.074281 24.559542 1.234699
v 6.559632 24.574215 1.323107
v 6.078773 34.665493 -3.150911
v 6.078773 34.665493 -3.150911
v 6.559632 24.574215 1.323107
v 6.157276 24.693041 1.634369
v 5.676416 34.784321 -2.839650
v 5.676416 34.784321 -2.839650
v 6.157276 24.693041 1.634369
v 5.975022 24.884184 2.085083
v 5.494164 34.975464 -2.388936
v 5.494164 34.975464 -2.388936
v 5.975022 24.884184 2.085083
v 6.061707 25.096424 2.554480
v 5.580848 35.187702 -1.919538
v 5.580848 35.187702 -1.919538
v 6.061707 25.096424 2.554480
v 6.394103 25.272894 2.916787
v 5.913244 35.364174 -1.557231
v 5.913244 35.364174 -1.557231
v 6.394103 25.272894 2.916787
v 6.883144 25.366306 3.074924
v 6.402285 35.457584 -1.399095
v 6.402285 35.457584 -1.399095
v 6.883144 25.366306 3.074924
v 7.397793 25.351635 2.986516
v 6.916934 35.442913 -1.487502
v 6.916934 35.442913 -1.487502
v 7.397793 25.351635 2.986516
v 7.800149 25.232807 2.675255
v 7.319290 35.324085 -1.798764
v 7.319290 35.324085 -1.798764
v 7.800149 25.232807 2.675255
v 7.982403 25.041666 2.224541
v 7.501544 35.132946 -2.249477
v 7.501544 35.132946 -2.249477
v 7.982403 25.041666 2.224541
v 7.895718 24.829426 1.755142
v 7.414859 34.920704 -2.718876
v -0.676612 30.837248 1.545501
v 8.575601 30.837246 1.545500
v 8.575601 30.744167 0.276838
v -0.676612 30.744169 0.276838
v -0.676612 30.744169 0.276838
v 8.575601 30.744167 0.276838
v 8.575600 30.029228 -0.775316
v -0.676612 30.029230 -0.775316
v -0.676612 30.029230 -0.775316
v 8.575600 30.029228 -0.775316
v 8.575600 28.883995 -1.329039
v -0.676612 28.883997 -1.329039
v -0.676612 28.883997 -1.329039
v 8.575600 28.883995 -1.329039
v 8.575600 27.615334 -1.235961
v -0.676612 27.615335 -1.235960
v -0.676612 27.615335 -1.235960
v 8.575600 27.615334 -1.235961
v 8.575601 26.563179 -0.521022
v -0.676612 26.563181 -0.521021
v -0.676612 26.563181 -0.521021
v 8.575601 26.563179 -0.521022
v 8.575600 26.009457 0.624211
v -0.676612 26.009459 0.624211
v -0.676612 26.009459 0.624211
v 8.575600 26.009457 0.624211
v 8.575601 26.102535 1.892873
v -0.676612 26.102537 1.892874
v -0.676612 26.102537 1.892874
v 8.575601 26.102535 1.892873
v 8.575601 26.817474 2.945027
v -0.676612 26.817476 2.945028
v -0.676612 26.817476 2.945028
v 8.575601 26.817474 2.945027
v 8.575601 27.962706 3.498751
v -0.676612 27.962708 3.498751
v -0.676612 27.962708 3.498751
v 8.575601 27.962706 3.498751
v 8.575601 29.231367 3.405673
v -0.676611 29.231369 3.405673
v -0.676611 29.231369 3.405673
v 8.575601 29.231367 3.405673
v 8.575601 30.283522 2.690734
v -0.676612 30.283524 2.690735
v -0.676612 30.283524 2.690735
v 8.575601 30.283522 2.690734
v 8.575601 30.837246 1.545500
v -0.676612 30.837248 1.545501
v -0.927384 32.753254 1.911133
v 5.118183 32.753254 1.911133
v 5.118182 32.586292 -0.364518
v -0.927385 32.586296 -0.364517
v -0.927385 32.586296 -0.364517
v 5.118182 32.586292 -0.364518
v 5.118182 31.303879 -2.251810
v -0.927385 31.303879 -2.251810
v -0.927385 31.303879 -2.251810
v 5.118182 31.303879 -2.251810
v 5.118182 29.249628 -3.245045
v -0.927385 29.249630 -3.245045
v -0.927385 29.249630 -3.245045
v 5.118182 29.249628 -3.245045
v 5.118183 26.973978 -3.078086
v -0.927385 26.973980 -3.078086
v -0.927385 26.973980 -3.078086
v 5.118183 26.973978 -3.078086
v 5.118182 25.086687 -1.795671
v -0.927384 25.086689 -1.795671
v -0.927384 25.086689 -1.795671
v 5.118182 25.086687 -1.795671
v 5.118183 24.093452 0.258579
v -0.927384 24.093452 0.258579
v -0.927384 24.093452 0.258579
v 5.118183 24.093452 0.258579
v 5.118183 24.260410 2.534229
v -0.927384 24.260410 2.534229
v -0.927384 24.260410 2.534229
v 5.118183 24.260410 2.534229
v 5.118183 25.542824 4.421521
v -0.927384 25.542826 4.421522
v -0.927384 25.542826 4.421522
v 5.118183 25.542824 4.421521
v 5.118184 27.597075 5.414757
v -0.927384 27.597075 5.414757
v -0.927384 27.597075 5.414757
v 5.118184 27.597075 5.414757
v 5.118183 29.872725 5.247800
v -0.927384 29.872725 5.247800
v -0.927384 29.872725 5.247800
v 5.118183 29.872725 5.247800
v 5.118183 31.760015 3.965385
v -0.927384 31.760017 3.965386
v -0.927384 31.760017 3.965386
v 5.118183 31.760015 3.965385
v 5.118183 32.753254 1.911133
v -0.927384 32.753254 1.911133
v 7.563322 24.652956 1.392835
v 7.895718 24.829426 1.755142
v 7.982403 25.041666 2.224541
v 7.800149 25.232807 2.675255
v 7.397793 25.351635 2.986516
v 6.883144 25.366306 3.074924
v 6.394103 25.272894 2.916787
v 6.061707 25.096424 2.554480
v 5.975022 24.884184 2.085083
v 6.157276 24.693041 1.634369
v 6.559632 24.574215 1.323107
v 7.074281 24.559542 1.234699
v 7.414859 34.920704 -2.718876
v 7.082463 34.744236 -3.081183
v 6.593422 34.650822 -3.239319
v 6.078773 34.665493 -3.150911
v 5.676416 34.784321 -2.839650
v 5.494164 34.975464 -2.388936
v 5.580848 35.187702 -1.919538
v 5.913244 35.364174 -1.557231
v 6.402285 35.457584 -1.399095
v 6.916934 35.442913 -1.487502
v 7.319290 35.324085 -1.798764
v 7.501544 35.132946 -2.249477
v 8.575601 30.744167 0.276838
v 8.575601 30.837246 1.545500
v 8.575601 30.283522 2.690734
v 8.575601 29.231367 3.405673
v 8.575601 27.962706 3.498751
v 8.575601 26.817474 2.945027
v 8.575601 26.102535 1.892873
v 8.575600 26.009457 0.624211
v 8.575601 26.563179 -0.521022
v 8.575600 27.615334 -1.235961
v 8.575600 28.883995 -1.329039
v 8.575600 30.029228 -0.775316
v -0.676612 30.837248 1.545501
v -0.676612 30.744169 0.276838
v -0.676612 30.029230 -0.775316
v -0.676612 28.883997 -1.329039
v -0.676612 27.615335 -1.235960
v -0.676612 26.563181 -0.521021
v -0.676612 26.009459 0.624211
v -0.676612 26.102537 1.892874
v -0.676612 26.817476 2.945028
v -0.676612 27.962708 3.498751
v -0.676611 29.231369 3.405673
v -0.676612 30.283524 2.690735
v 5.118182 32.586292 -0.364518
v 5.118183 32.753254 1.911133
v 5.118183 31.760015 3.965385
v 5.118183 29.872725 5.247800
v 5.118184 27.597075 5.414757
v 5.118183 25.542824 4.421521
v 5.118183 24.260410 2.534229
v 5.118183 24.093452 0.258579
v 5.118182 25.086687 -1.795671
v 5.118183 26.973978 -3.078086
v 5.118182 29.249628 -3.245045
v 5.118182 31.303879 -2.251810
v -0.927384 32.753254 1.911133
v -0.927385 32.586296 -0.364517
v -0.927385 31.303879 -2.251810
v -0.927385 29.249630 -3.245045
v -0.927385 26.973980 -3.078086
v -0.927384 25.086689 -1.795671
v -0.927384 24.093452 0.258579
v -0.927384 24.260410 2.534229
v -0.927384 25.542826 4.421522
v -0.927384 27.597075 5.414757
v -0.927384 29.872725 5.247800
v -0.927384 31.760017 3.965386
vn 0.7702 -0.2275 -0.5958
vn 0.3489 -0.3659 -0.8628
vn -0.1659 -0.4063 -0.8986
vn -0.6363 -0.3378 -0.6936
vn -0.9362 -0.1788 -0.3027
vn -0.9852 0.0281 0.1692
vn -0.7702 0.2275 0.5958
vn -0.3489 0.3659 0.8628
vn 0.1659 0.4063 0.8986
vn 0.6363 0.3378 0.6936
vn 0.9362 0.1788 0.3027
vn 0.9852 -0.0281 -0.1692
vn 0.0000 0.9973 -0.0732
vn 0.0000 0.8271 -0.5620
vn 0.0000 0.4353 -0.9003
vn -0.0000 -0.0732 -0.9973
vn -0.0000 -0.5620 -0.8271
vn -0.0000 -0.9003 -0.4353
vn -0.0000 -0.9973 0.0732
vn -0.0000 -0.8271 0.5620
vn 0.0000 -0.4353 0.9003
vn 0.0000 0.0732 0.9973
vn 0.0000 0.5620 0.8271
vn 0.0000 0.9003 0.4353
vn 0.0435 -0.9133 0.4049
vn -0.0435 0.9133 -0.4049
vn 1.0000 0.0000 0.0000
vn -1.0000 0.0000 -0.0000
usemtl Grey
s off
f 1//1 2//1 3//1
f 1//1 3//1 4//1
f 5//2 6//2 7//2
f 5//2 7//2 8//2
f 9//3 10//3 11//3
f 9//3 11//3 12//3
f 13//4 14//4 15//4
f 13//4 15//4 16//4
f 17//5 18//5 19//5
f 17//5 19//5 20//5
f 21//6 22//6 23//6
f 21//6 23//6 24//6
f 25//7 26//7 27//7
f 25//7 27//7 28//7
f 29//8 30//8 31//8
f 29//8 31//8 32//8
f 33//9 34//9 35//9
f 33//9 35//9 36//9
f 37//10 38//10 39//10
f 37//10 39//10 40//10
f 41//11 42//11 43//11
f 41//11 43//11 44//11
f 45//12 46//12 47//12
f 45//12 47//12 48//12
f 49//13 51//13 52//13
f 53//14 54//14 55//14
f 53//14 55//14 56//14
f 57//15 58//15 59//15
f 57//15 59//15 60//15
f 61//16 62//16 63//16
f 61//16 63//16 64//16
f 65//17 66//17 67//17
f 65//17 67//17 68//17
f 69//18 70//18 71//18
f 69//18 71//18 72//18
f 73//19 74//19 75//19
f 73//19 75//19 76//19
f 77//20 78//20 79//20
f 77//20 79//20 80//20
f 81//21 82//21 83//21
f 81//21 83//21 84//21
f 85//22 86//22 87//22
f 85//22 87//22 88//22
f 89//23 90//23 91//23
f 93//24 94//24 95//24
f 93//24 95//24 96//24
f 97//13 98//13 99//13
f 97//13 99//13 100//13
f 101//14 102//14 103//14
f 101//14 103//14 104//14
f 105//15 106//15 107//15
f 105//15 107//15 108//15
f 109//16 110//16 111//16
f 109//16 111//16 112//16
f 113//17 114//17 115//17
f 113//17 115//17 116//17
f 117//18 118//18 119//18
f 117//18 119//18 120//18
f 121//19 122//19 123//19
f 121//19 123//19 124//19
f 125//20 126//20 127//20
f 125//20 127//20 128//20
f 129//21 130//21 131//21
f 129//21 131//21 132//21
f 133//22 134//22 135//22
f 133//22 135//22 136//22
f 137//23 138//23 139//23
f 137//23 139//23 140//23
f 141//24 142//24 143//24
f 141//24 143//24 144//24
f 150//25 148//25 149//25
f 148//25 150//25 147//25
f 147//25 150//25 151//25
f 147//25 151//25 146//25
f 146//25 151//25 152//25
f 146//25 152//25 145//25
f 145//25 152//25 153//25
f 145//25 153//25 156//25
f 156//25 153//25 154//25
f 156//25 154//25 155//25
f 167//26 165//26 166//26
f 165//26 167//26 168//26
f 165//26 168//26 164//26
f 164//26 168//26 157//26
f 164//26 157//26 163//26
f 163//26 157//26 158//26
f 163//26 158//26 162//26
f 162//26 158//26 159//26
f 162//26 159//26 161//26
f 161//26 159//26 160//26
f 170//27 180//27 169//27
f 180//27 170//27 179//27
f 179//27 170//27 171//27
f 179//27 171//27 178//27
f 178//27 171//27 172//27
f 178//27 172//27 177//27
f 177//27 172//27 173//27
f 177//27 173//27 176//27
f 176//27 173//27 174//27
f 176//27 174//27 175//27
f 183//28 181//28 182//28
f 181//28 183//28 184//28
f 181//28 184//28 192//28
f 192//28 184//28 185//28
f 192//28 185//28 191//28
f 191//28 185//28 186//28
f 191//28 186//28 190//28
f 190//28 186//28 187//28
f 189//28 187//28 188//28
f 194//27 204//27 193//27
f 204//27 194//27 203//27
f 203//27 194//27 195//27
f 203//27 195//27 202//27
f 202//27 196//27 201//27
f 201//27 196//27 197//27
f 201//27 197//27 200//27
f 200//27 197//27 198//27
f 207//28 205//28 206//28
f 205//28 207//28 208//28
f 205//28 208//28 216//28
f 216//28 208//28 209//28
f 216//28 209//28 215//28
f 215//28 209//28 210//28
f 215//28 210//28 214//28
f 214//28 210//28 211//28
f 214//28 211//28 213//28
f 213//28 211//28 212//28
s 1
f 49//13 50//13 51//13
f 89//23 91//23 92//23
f 190//28 187//28 189//28
f 202//27 195//27 196//27
f 200//27 198//27 199//27
