# Blender v2.93.5 OBJ File: ''
# www.blender.org
mtllib seg02.mtl
o Cylinder.004_Metal_0
v 3.564886 68.255318 -20.224821
v 3.557403 69.122429 -20.701473
v 3.147601 69.423904 -20.146606
v 3.155083 68.556793 -19.669954
v 3.155083 68.556793 -19.669954
v 3.147601 69.423904 -20.146606
v 2.476975 69.584198 -19.844496
v 2.484457 68.717087 -19.367844
v 2.484457 68.717087 -19.367844
v 2.476975 69.584198 -19.844496
v 1.725218 69.560341 -19.876085
v 1.732700 68.693230 -19.399433
v 1.732700 68.693230 -19.399433
v 1.725218 69.560341 -19.876085
v 1.093765 69.358742 -20.232918
v 1.101247 68.491623 -19.756260
v 1.101247 68.491623 -19.756260
v 1.093765 69.358742 -20.232918
v 0.751811 69.033417 -20.819376
v 0.759293 68.166306 -20.342724
v 0.759293 68.166306 -20.342724
v 0.751811 69.033417 -20.819376
v 0.790984 68.671524 -21.478319
v 0.798467 67.804413 -21.001667
v 0.798467 67.804413 -21.001667
v 0.790984 68.671524 -21.478319
v 1.200786 68.370049 -22.033190
v 1.208269 67.502937 -21.556538
v 1.208269 67.502937 -21.556538
v 1.200786 68.370049 -22.033190
v 1.871412 68.209763 -22.335304
v 1.878895 67.342651 -21.858652
v 1.878895 67.342651 -21.858652
v 1.871412 68.209763 -22.335304
v 2.623169 68.233612 -22.303709
v 2.630651 67.366501 -21.827057
v 2.630651 67.366501 -21.827057
v 2.623169 68.233612 -22.303709
v 3.254622 68.435211 -21.946882
v 3.262105 67.568100 -21.470230
v 3.262105 67.568100 -21.470230
v 3.254622 68.435211 -21.946882
v 3.596576 68.760544 -21.360424
v 3.604059 67.893433 -20.883772
v 3.604059 67.893433 -20.883772
v 3.596576 68.760544 -21.360424
v 3.557403 69.122429 -20.701473
v 3.564886 68.255318 -20.224821
v 3.716965 31.371414 -0.285290
v 3.707600 32.456703 -0.881877
v 3.668427 32.818592 -0.222932
v 3.677792 31.733301 0.373656
v 3.375011 31.046085 -0.871748
v 3.365646 32.131374 -1.468336
v 3.707600 32.456703 -0.881877
v 3.716965 31.371414 -0.285290
v 2.743557 30.844484 -1.228578
v 2.734192 31.929775 -1.825166
v 3.365646 32.131374 -1.468336
v 3.375011 31.046085 -0.871748
v 1.991801 30.820633 -1.260169
v 1.982436 31.905924 -1.856756
v 2.734192 31.929775 -1.825166
v 2.743557 30.844484 -1.228578
v 1.321175 30.980921 -0.958056
v 1.311810 32.066212 -1.554643
v 1.982436 31.905924 -1.856756
v 1.991801 30.820633 -1.260169
v 0.911372 31.282396 -0.403187
v 0.902008 32.367687 -0.999774
v 1.311810 32.066212 -1.554643
v 1.321175 30.980921 -0.958056
v 0.872200 31.644283 0.255757
v 0.862835 32.729572 -0.340830
v 0.902008 32.367687 -0.999774
v 0.911372 31.282396 -0.403187
v 1.214153 31.969610 0.842216
v 1.204788 33.054901 0.245628
v 0.862835 32.729572 -0.340830
v 0.872200 31.644283 0.255757
v 1.845607 32.171211 1.199047
v 1.836242 33.256500 0.602460
v 1.204788 33.054901 0.245628
v 1.214153 31.969610 0.842216
v 2.597363 32.195065 1.230638
v 2.587998 33.280354 0.634050
v 1.836242 33.256500 0.602460
v 1.845607 32.171211 1.199047
v 3.267989 32.034779 0.928524
v 3.258625 33.120068 0.331935
v 2.587998 33.280354 0.634050
v 2.597363 32.195065 1.230638
v 3.677792 31.733301 0.373656
v 3.668427 32.818592 -0.222932
v 3.258625 33.120068 0.331935
v 3.267989 32.034779 0.928524
v 3.707600 32.456703 -0.881877
v 3.365646 32.131374 -1.468336
v 3.577069 31.965433 -1.593812
v 3.985730 32.354225 -0.892949
v 1.204788 33.054901 0.245628
v 1.836242 33.256500 0.602460
v 1.749311 33.310047 0.880950
v 0.994675 33.069118 0.454508
v 0.856123 33.507336 -0.768369
v 0.895296 33.145451 -1.427316
v 0.624807 33.177334 -1.544790
v 0.577993 33.609814 -0.757298
v 3.668427 32.818592 -0.222932
v 3.707600 32.456703 -0.881877
v 3.985730 32.354225 -0.892949
v 3.938916 32.786713 -0.105459
v 0.862835 32.729572 -0.340830
v 1.204788 33.054901 0.245628
v 0.994675 33.069118 0.454508
v 0.586014 32.680325 -0.246354
v 0.895296 33.145451 -1.427316
v 1.305099 32.843975 -1.982184
v 1.114554 32.817047 -2.207900
v 0.624807 33.177334 -1.544790
v 0.902008 32.367687 -0.999774
v 0.862835 32.729572 -0.340830
v 0.586014 32.680325 -0.246354
v 0.632828 32.247845 -1.033845
v 1.305099 32.843975 -1.982184
v 1.975725 32.683689 -2.284297
v 1.916004 32.625488 -2.568949
v 1.114554 32.817047 -2.207900
v 3.661716 33.596355 -0.650472
v 3.251913 33.897835 -0.095605
v 3.441149 34.076488 0.046708
v 3.930895 33.716202 -0.616402
v 1.311810 32.066212 -1.554643
v 0.902008 32.367687 -0.999774
v 0.632828 32.247845 -1.033845
v 1.122574 31.887556 -1.696957
v 1.975725 32.683689 -2.284297
v 2.727481 32.707539 -2.252706
v 2.814412 32.653996 -2.531196
v 1.916004 32.625488 -2.568949
v 3.251913 33.897835 -0.095605
v 2.581287 34.058121 0.206510
v 2.639698 34.268044 0.407759
v 3.441149 34.076488 0.046708
v 3.564886 68.255318 -20.224821
v 3.155083 68.556793 -19.669954
v 3.369611 68.779755 -19.519629
v 3.870116 68.411552 -20.197306
v 3.270396 66.607262 -20.942049
v 2.638942 66.405670 -21.298883
v 2.739232 66.152512 -21.509085
v 3.510446 66.398727 -21.073278
v 1.878895 67.342651 -21.858652
v 2.630651 67.366501 -21.827057
v 2.729106 67.326004 -22.154163
v 1.810962 67.296875 -22.192747
v 2.492748 67.756241 -18.839666
v 3.163374 67.595963 -19.141781
v 3.379737 67.606247 -18.874550
v 2.560680 67.802017 -18.505569
v 3.155083 68.556793 -19.669954
v 2.484457 68.717087 -19.367844
v 2.550554 68.975517 -19.150646
v 3.369611 68.779755 -19.519629
v 2.638942 66.405670 -21.298883
v 1.887186 66.381813 -21.330471
v 1.821089 66.123383 -21.547668
v 2.739232 66.152512 -21.509085
v 2.630651 67.366501 -21.827057
v 3.262105 67.568100 -21.470230
v 3.500320 67.572235 -21.718357
v 2.729106 67.326004 -22.154163
v 3.163374 67.595963 -19.141781
v 3.573177 67.294479 -19.696650
v 3.880244 67.238052 -19.552229
v 3.379737 67.606247 -18.874550
v 2.484457 68.717087 -19.367844
v 1.732700 68.693230 -19.399433
v 1.632411 68.946381 -19.189226
v 2.550554 68.975517 -19.150646
v 1.887186 66.381813 -21.330471
v 1.216560 66.542099 -21.028357
v 1.002031 66.319138 -21.178688
v 1.821089 66.123383 -21.547668
v 3.262105 67.568100 -21.470230
v 3.604059 67.893433 -20.883772
v 3.917960 67.969566 -21.002094
v 3.500320 67.572235 -21.718357
v 1.732700 68.693230 -19.399433
v 1.101247 68.491623 -19.756260
v 0.861196 68.700165 -19.625040
v 1.632411 68.946381 -19.189226
v 3.661716 33.596355 -0.650472
v 3.573177 67.294479 -19.696650
v 3.163374 67.595963 -19.141781
v 3.251913 33.897835 -0.095605
v 3.251913 33.897835 -0.095605
v 3.163374 67.595963 -19.141781
v 2.492748 67.756241 -18.839666
v 2.581287 34.058121 0.206510
v 2.581287 34.058121 0.206510
v 2.492748 67.756241 -18.839666
v 1.740993 67.732391 -18.871254
v 1.829530 34.034267 0.174920
v 1.829530 34.034267 0.174920
v 1.740993 67.732391 -18.871254
v 1.109538 67.530792 -19.228088
v 1.198077 33.832668 -0.181912
v 1.198077 33.832668 -0.181912
v 1.109538 67.530792 -19.228088
v 0.767584 67.205460 -19.814545
v 0.856123 33.507336 -0.768369
v 0.856123 33.507336 -0.768369
v 0.767584 67.205460 -19.814545
v 0.806757 66.843582 -20.473494
v 0.895296 33.145451 -1.427316
v 0.895296 33.145451 -1.427316
v 0.806757 66.843582 -20.473494
v 1.216560 66.542099 -21.028357
v 1.305099 32.843975 -1.982184
v 1.305099 32.843975 -1.982184
v 1.216560 66.542099 -21.028357
v 1.887186 66.381813 -21.330471
v 1.975725 32.683689 -2.284297
v 1.975725 32.683689 -2.284297
v 1.887186 66.381813 -21.330471
v 2.638942 66.405670 -21.298883
v 2.727481 32.707539 -2.252706
v 2.727481 32.707539 -2.252706
v 2.638942 66.405670 -21.298883
v 3.270396 66.607262 -20.942049
v 3.358935 32.909142 -1.895876
v 3.358935 32.909142 -1.895876
v 3.270396 66.607262 -20.942049
v 3.612350 66.932587 -20.355595
v 3.700889 33.234470 -1.309417
v 3.700889 33.234470 -1.309417
v 3.612350 66.932587 -20.355595
v 3.573177 67.294479 -19.696650
v 3.661716 33.596355 -0.650472
v 3.985730 32.354225 -0.892949
v 3.977710 33.283714 -1.403891
v 3.930895 33.716202 -0.616402
v 3.938916 32.786713 -0.105459
v 3.577069 31.965433 -1.593812
v 3.569048 32.894924 -2.104756
v 3.977710 33.283714 -1.403891
v 3.985730 32.354225 -0.892949
v 2.822432 31.724504 -2.020252
v 2.814412 32.653996 -2.531196
v 3.569048 32.894924 -2.104756
v 3.577069 31.965433 -1.593812
v 1.924025 31.696001 -2.058006
v 1.916004 32.625488 -2.568949
v 2.814412 32.653996 -2.531196
v 2.822432 31.724504 -2.020252
v 1.122574 31.887556 -1.696957
v 1.114554 32.817047 -2.207900
v 1.916004 32.625488 -2.568949
v 1.924025 31.696001 -2.058006
v 0.632828 32.247845 -1.033845
v 0.624807 33.177334 -1.544790
v 1.114554 32.817047 -2.207900
v 1.122574 31.887556 -1.696957
v 0.586014 32.680325 -0.246354
v 0.577993 33.609814 -0.757298
v 0.624807 33.177334 -1.544790
v 0.632828 32.247845 -1.033845
v 0.994675 33.069118 0.454508
v 0.986654 33.998608 -0.056434
v 0.577993 33.609814 -0.757298
v 0.586014 32.680325 -0.246354
v 1.749311 33.310047 0.880950
v 1.741291 34.239536 0.370006
v 0.986654 33.998608 -0.056434
v 0.994675 33.069118 0.454508
v 2.647718 33.338551 0.918704
v 2.639698 34.268044 0.407759
v 1.741291 34.239536 0.370006
v 1.749311 33.310047 0.880950
v 3.449170 33.146999 0.557653
v 3.441149 34.076488 0.046708
v 2.639698 34.268044 0.407759
v 2.647718 33.338551 0.918704
v 3.938916 32.786713 -0.105459
v 3.930895 33.716202 -0.616402
v 3.441149 34.076488 0.046708
v 3.449170 33.146999 0.557653
v 1.198077 33.832668 -0.181912
v 0.856123 33.507336 -0.768369
v 0.577993 33.609814 -0.757298
v 0.986654 33.998608 -0.056434
v 1.836242 33.256500 0.602460
v 2.587998 33.280354 0.634050
v 2.647718 33.338551 0.918704
v 1.749311 33.310047 0.880950
v 3.700889 33.234470 -1.309417
v 3.661716 33.596355 -0.650472
v 3.930895 33.716202 -0.616402
v 3.977710 33.283714 -1.403891
v 3.365646 32.131374 -1.468336
v 2.734192 31.929775 -1.825166
v 2.822432 31.724504 -2.020252
v 3.577069 31.965433 -1.593812
v 1.829530 34.034267 0.174920
v 1.198077 33.832668 -0.181912
v 0.986654 33.998608 -0.056434
v 1.741291 34.239536 0.370006
v 2.587998 33.280354 0.634050
v 3.258625 33.120068 0.331935
v 3.449170 33.146999 0.557653
v 2.647718 33.338551 0.918704
v 3.358935 32.909142 -1.895876
v 3.700889 33.234470 -1.309417
v 3.977710 33.283714 -1.403891
v 3.569048 32.894924 -2.104756
v 2.734192 31.929775 -1.825166
v 1.982436 31.905924 -1.856756
v 1.924025 31.696001 -2.058006
v 2.822432 31.724504 -2.020252
v 2.581287 34.058121 0.206510
v 1.829530 34.034267 0.174920
v 1.741291 34.239536 0.370006
v 2.639698 34.268044 0.407759
v 3.258625 33.120068 0.331935
v 3.668427 32.818592 -0.222932
v 3.938916 32.786713 -0.105459
v 3.449170 33.146999 0.557653
v 2.727481 32.707539 -2.252706
v 3.358935 32.909142 -1.895876
v 3.569048 32.894924 -2.104756
v 2.814412 32.653996 -2.531196
v 1.982436 31.905924 -1.856756
v 1.311810 32.066212 -1.554643
v 1.122574 31.887556 -1.696957
v 1.924025 31.696001 -2.058006
v 3.928086 66.796066 -20.357016
v 3.917960 67.969566 -21.002094
v 3.870116 68.411552 -20.197306
v 3.880244 67.238052 -19.552229
v 3.510446 66.398727 -21.073278
v 3.500320 67.572235 -21.718357
v 3.917960 67.969566 -21.002094
v 3.928086 66.796066 -20.357016
v 2.739232 66.152512 -21.509085
v 2.729106 67.326004 -22.154163
v 3.500320 67.572235 -21.718357
v 3.510446 66.398727 -21.073278
v 1.821089 66.123383 -21.547668
v 1.810962 67.296875 -22.192747
v 2.729106 67.326004 -22.154163
v 2.739232 66.152512 -21.509085
v 1.002031 66.319138 -21.178688
v 0.991905 67.492645 -21.823767
v 1.810962 67.296875 -22.192747
v 1.821089 66.123383 -21.547668
v 0.501526 66.687347 -20.501007
v 0.491400 67.860847 -21.146088
v 0.991905 67.492645 -21.823767
v 1.002031 66.319138 -21.178688
v 0.453683 67.129326 -19.696217
v 0.443558 68.302826 -20.341295
v 0.491400 67.860847 -21.146088
v 0.501526 66.687347 -20.501007
v 0.871322 67.526665 -18.979961
v 0.861196 68.700165 -19.625040
v 0.443558 68.302826 -20.341295
v 0.453683 67.129326 -19.696217
v 1.642537 67.772881 -18.544147
v 1.632411 68.946381 -19.189226
v 0.861196 68.700165 -19.625040
v 0.871322 67.526665 -18.979961
v 2.560680 67.802017 -18.505569
v 2.550554 68.975517 -19.150646
v 1.632411 68.946381 -19.189226
v 1.642537 67.772881 -18.544147
v 3.379737 67.606247 -18.874550
v 3.369611 68.779755 -19.519629
v 2.550554 68.975517 -19.150646
v 2.560680 67.802017 -18.505569
v 3.880244 67.238052 -19.552229
v 3.870116 68.411552 -20.197306
v 3.369611 68.779755 -19.519629
v 3.379737 67.606247 -18.874550
v 1.740993 67.732391 -18.871254
v 2.492748 67.756241 -18.839666
v 2.560680 67.802017 -18.505569
v 1.642537 67.772881 -18.544147
v 1.208269 67.502937 -21.556538
v 1.878895 67.342651 -21.858652
v 1.810962 67.296875 -22.192747
v 0.991905 67.492645 -21.823767
v 3.612350 66.932587 -20.355595
v 3.270396 66.607262 -20.942049
v 3.510446 66.398727 -21.073278
v 3.928086 66.796066 -20.357016
v 1.109538 67.530792 -19.228088
v 1.740993 67.732391 -18.871254
v 1.642537 67.772881 -18.544147
v 0.871322 67.526665 -18.979961
v 0.798467 67.804413 -21.001667
v 1.208269 67.502937 -21.556538
v 0.991905 67.492645 -21.823767
v 0.491400 67.860847 -21.146088
v 3.573177 67.294479 -19.696650
v 3.612350 66.932587 -20.355595
v 3.928086 66.796066 -20.357016
v 3.880244 67.238052 -19.552229
v 0.767584 67.205460 -19.814545
v 1.109538 67.530792 -19.228088
v 0.871322 67.526665 -18.979961
v 0.453683 67.129326 -19.696217
v 0.759293 68.166306 -20.342724
v 0.798467 67.804413 -21.001667
v 0.491400 67.860847 -21.146088
v 0.443558 68.302826 -20.341295
v 0.806757 66.843582 -20.473494
v 0.767584 67.205460 -19.814545
v 0.453683 67.129326 -19.696217
v 0.501526 66.687347 -20.501007
v 1.101247 68.491623 -19.756260
v 0.759293 68.166306 -20.342724
v 0.443558 68.302826 -20.341295
v 0.861196 68.700165 -19.625040
v 3.604059 67.893433 -20.883772
v 3.564886 68.255318 -20.224821
v 3.870116 68.411552 -20.197306
v 3.917960 67.969566 -21.002094
v 1.216560 66.542099 -21.028357
v 0.806757 66.843582 -20.473494
v 0.501526 66.687347 -20.501007
v 1.002031 66.319138 -21.178688
v 3.147601 69.423904 -20.146606
v 3.557403 69.122429 -20.701473
v 3.596576 68.760544 -21.360424
v 3.254622 68.435211 -21.946882
v 2.623169 68.233612 -22.303709
v 1.871412 68.209763 -22.335304
v 1.200786 68.370049 -22.033190
v 0.790984 68.671524 -21.478319
v 0.751811 69.033417 -20.819376
v 1.093765 69.358742 -20.232918
v 1.725218 69.560341 -19.876085
v 2.476975 69.584198 -19.844496
v 3.677792 31.733301 0.373656
v 3.267989 32.034779 0.928524
v 2.597363 32.195065 1.230638
v 1.845607 32.171211 1.199047
v 1.214153 31.969610 0.842216
v 0.872200 31.644283 0.255757
v 0.911372 31.282396 -0.403187
v 1.321175 30.980921 -0.958056
v 1.991801 30.820633 -1.260169
v 2.743557 30.844484 -1.228578
v 3.375011 31.046085 -0.871748
v 3.716965 31.371414 -0.285290
vn 0.8388 0.2678 0.4740
vn 0.4542 0.4322 0.7790
vn -0.0520 0.4807 0.8753
vn -0.5444 0.4005 0.7371
vn -0.8908 0.2129 0.4013
vn -0.9986 -0.0317 -0.0420
vn -0.8388 -0.2678 -0.4740
vn -0.4542 -0.4322 -0.7790
vn 0.0520 -0.4807 -0.8753
vn 0.5444 -0.4005 -0.7371
vn 0.8908 -0.2129 -0.4013
vn 0.9986 0.0317 0.0420
vn -0.2611 -0.7715 0.5802
vn 0.1712 -0.9562 0.2373
vn 0.2936 0.8451 -0.4467
vn -0.2936 -0.8451 0.4467
vn 0.2756 -0.8997 0.3384
vn 0.2455 0.9163 -0.3165
vn 0.3080 -0.8260 0.4720
vn 0.3080 -0.8261 0.4720
vn 0.1296 0.9658 -0.2246
vn 0.1296 0.9658 -0.2247
vn -0.2599 0.7549 -0.6021
vn 0.2599 -0.7549 0.6021
vn -0.0229 0.9804 -0.1956
vn -0.0229 0.9804 -0.1957
vn -0.1440 0.7054 -0.6940
vn -0.3120 0.7190 -0.6211
vn -0.1909 -0.6707 0.7167
vn -0.0260 0.9911 -0.1305
vn -0.1581 -0.9735 0.1655
vn -0.1722 0.6592 -0.7320
vn -0.0119 -0.6416 0.7670
vn -0.2050 0.9619 -0.1808
vn -0.2979 -0.9137 0.2764
vn 0.0119 0.6416 -0.7670
vn 0.1722 -0.6592 0.7320
vn -0.3309 0.8937 -0.3029
vn -0.3309 0.8937 -0.3028
vn 0.1909 0.6707 -0.7168
vn 0.1909 0.6708 -0.7167
vn 0.8388 0.2696 0.4730
vn 0.4542 0.4393 0.7751
vn -0.0521 0.4913 0.8694
vn -0.5444 0.4116 0.7309
vn -0.8909 0.2217 0.3965
vn -0.9986 -0.0276 -0.0442
vn -0.8388 -0.2696 -0.4730
vn -0.4542 -0.4393 -0.7751
vn 0.0521 -0.4913 -0.8694
vn 0.5444 -0.4116 -0.7309
vn 0.8909 -0.2217 -0.3965
vn 0.9986 0.0276 0.0442
vn 0.2611 0.7715 -0.5802
vn 0.0229 -0.9804 0.1956
vn 0.0229 -0.9804 0.1957
vn -0.3080 0.8260 -0.4720
vn -0.3080 0.8261 -0.4720
vn -0.1568 -0.7150 0.6814
vn 0.1568 0.7150 -0.6814
vn -0.1296 -0.9658 0.2246
vn -0.1296 -0.9658 0.2247
vn -0.2756 0.8997 -0.3385
vn -0.2756 0.8997 -0.3384
vn -0.0085 -0.6908 0.7230
vn 0.0085 0.6908 -0.7230
vn -0.2455 -0.9163 0.3166
vn -0.2455 -0.9163 0.3165
vn -0.1712 0.9562 -0.2373
vn 0.1440 -0.7054 0.6940
vn 0.0260 -0.9911 0.1305
vn 0.1581 0.9735 -0.1655
vn -0.3168 -0.7389 0.5947
vn 0.2050 -0.9619 0.1808
vn 0.2979 0.9137 -0.2764
vn -0.3560 -0.8278 0.4335
vn -0.3560 -0.8279 0.4335
vn 0.3309 -0.8937 0.3029
vn 0.3560 0.8278 -0.4335
vn 0.3560 0.8279 -0.4335
vn 0.3701 -0.8048 0.4640
vn 0.3168 0.7389 -0.5946
vn 0.3169 0.7389 -0.5947
vn -0.3701 0.8048 -0.4640
vn 0.3120 -0.7189 0.6211
vn 0.3120 -0.7190 0.6211
vn -0.0075 0.8763 -0.4817
vn -0.0076 0.8763 -0.4817
vn 0.0076 -0.8763 0.4817
usemtl Metal
s off
f 1//1 2//1 3//1
f 1//1 3//1 4//1
f 5//2 6//2 7//2
f 5//2 7//2 8//2
f 9//3 10//3 11//3
f 9//3 11//3 12//3
f 13//4 14//4 15//4
f 13//4 15//4 16//4
f 17//5 18//5 19//5
f 17//5 19//5 20//5
f 21//6 22//6 23//6
f 21//6 23//6 24//6
f 25//7 27//7 28//7
f 29//8 30//8 31//8
f 29//8 31//8 32//8
f 33//9 34//9 35//9
f 33//9 35//9 36//9
f 37//10 38//10 39//10
f 37//10 39//10 40//10
f 41//11 42//11 43//11
f 41//11 43//11 44//11
f 45//12 46//12 47//12
f 45//12 47//12 48//12
f 49//12 50//12 51//12
f 49//12 51//12 52//12
f 53//11 54//11 55//11
f 53//11 55//11 56//11
f 57//10 58//10 59//10
f 57//10 59//10 60//10
f 61//9 62//9 63//9
f 61//9 63//9 64//9
f 65//8 66//8 67//8
f 65//8 67//8 68//8
f 69//7 70//7 71//7
f 69//7 71//7 72//7
f 73//6 74//6 75//6
f 73//6 75//6 76//6
f 77//5 78//5 79//5
f 77//5 79//5 80//5
f 81//4 83//4 84//4
f 85//3 86//3 87//3
f 85//3 87//3 88//3
f 89//2 90//2 91//2
f 89//2 91//2 92//2
f 93//1 94//1 95//1
f 93//1 95//1 96//1
f 97//13 98//13 99//13
f 97//13 99//13 100//13
f 101//14 102//14 103//14
f 101//14 103//14 104//14
f 105//15 106//15 107//15
f 105//15 107//15 108//15
f 109//16 110//16 111//16
f 109//16 111//16 112//16
f 113//17 114//17 115//17
f 113//17 115//17 116//17
f 117//18 118//18 119//18
f 117//18 119//18 120//18
f 121//19 122//19 123//19
f 121//20 123//20 124//20
f 125//21 126//21 127//21
f 125//22 127//22 128//22
f 129//23 130//23 131//23
f 129//23 131//23 132//23
f 133//24 134//24 135//24
f 133//24 135//24 136//24
f 137//25 138//25 139//25
f 137//26 139//26 140//26
f 141//27 142//27 143//27
f 141//27 143//27 144//27
f 145//28 146//28 147//28
f 145//28 147//28 148//28
f 149//29 150//29 151//29
f 149//29 151//29 152//29
f 153//30 154//30 155//30
f 153//30 155//30 156//30
f 157//31 158//31 159//31
f 157//31 159//31 160//31
f 161//32 162//32 163//32
f 161//32 163//32 164//32
f 165//33 166//33 167//33
f 165//33 167//33 168//33
f 169//34 170//34 171//34
f 169//34 171//34 172//34
f 173//35 174//35 175//35
f 173//35 175//35 176//35
f 177//36 178//36 179//36
f 177//36 179//36 180//36
f 181//37 182//37 183//37
f 181//37 183//37 184//37
f 185//38 186//38 187//38
f 185//39 187//39 188//39
f 189//40 190//40 191//40
f 189//41 191//41 192//41
f 193//42 195//42 196//42
f 197//43 198//43 199//43
f 201//44 202//44 203//44
f 201//44 203//44 204//44
f 205//45 206//45 207//45
f 205//45 207//45 208//45
f 209//46 210//46 211//46
f 209//46 211//46 212//46
f 213//47 214//47 215//47
f 213//47 215//47 216//47
f 217//48 218//48 219//48
f 217//48 219//48 220//48
f 221//49 222//49 223//49
f 221//49 223//49 224//49
f 225//50 226//50 227//50
f 225//50 227//50 228//50
f 229//51 230//51 231//51
f 229//51 231//51 232//51
f 233//52 234//52 235//52
f 233//52 235//52 236//52
f 237//53 238//53 239//53
f 237//53 239//53 240//53
f 241//12 242//12 243//12
f 241//12 243//12 244//12
f 245//11 246//11 247//11
f 245//11 247//11 248//11
f 249//10 250//10 251//10
f 249//10 251//10 252//10
f 253//9 254//9 255//9
f 253//9 255//9 256//9
f 257//8 258//8 259//8
f 257//8 259//8 260//8
f 261//7 262//7 263//7
f 261//7 263//7 264//7
f 265//6 266//6 267//6
f 265//6 267//6 268//6
f 269//5 270//5 271//5
f 269//5 271//5 272//5
f 273//4 274//4 275//4
f 273//4 275//4 276//4
f 277//3 278//3 279//3
f 277//3 279//3 280//3
f 281//2 282//2 283//2
f 281//2 283//2 284//2
f 285//1 286//1 287//1
f 285//1 287//1 288//1
f 289//54 290//54 291//54
f 289//54 291//54 292//54
f 293//55 294//55 295//55
f 293//56 295//56 296//56
f 297//57 298//57 299//57
f 297//58 299//58 300//58
f 301//59 302//59 303//59
f 301//59 303//59 304//59
f 305//60 306//60 307//60
f 305//60 307//60 308//60
f 309//61 310//61 311//61
f 309//62 311//62 312//62
f 313//63 314//63 315//63
f 313//64 315//64 316//64
f 317//65 318//65 319//65
f 317//65 319//65 320//65
f 321//66 322//66 323//66
f 321//66 323//66 324//66
f 325//67 326//67 327//67
f 325//68 327//68 328//68
f 329//69 330//69 331//69
f 329//69 331//69 332//69
f 333//70 334//70 335//70
f 333//70 335//70 336//70
f 337//12 338//12 339//12
f 337//12 339//12 340//12
f 341//11 342//11 343//11
f 341//11 343//11 344//11
f 345//10 346//10 347//10
f 345//10 347//10 348//10
f 349//9 350//9 351//9
f 349//9 351//9 352//9
f 353//8 354//8 355//8
f 353//8 355//8 356//8
f 357//7 358//7 359//7
f 357//7 359//7 360//7
f 361//6 362//6 363//6
f 361//6 363//6 364//6
f 365//5 366//5 367//5
f 365//5 367//5 368//5
f 369//4 371//4 372//4
f 373//3 374//3 375//3
f 373//3 375//3 376//3
f 377//2 378//2 379//2
f 377//2 379//2 380//2
f 381//1 382//1 383//1
f 381//1 383//1 384//1
f 385//71 386//71 387//71
f 385//71 387//71 388//71
f 389//72 390//72 391//72
f 389//72 391//72 392//72
f 393//73 394//73 395//73
f 393//73 395//73 396//73
f 397//74 398//74 399//74
f 397//74 399//74 400//74
f 401//75 402//75 403//75
f 401//75 403//75 404//75
f 405//76 406//76 407//76
f 405//77 407//77 408//77
f 409//78 410//78 411//78
f 409//78 411//78 412//78
f 413//79 414//79 415//79
f 413//80 415//80 416//80
f 417//81 418//81 419//81
f 417//81 419//81 420//81
f 421//82 422//82 423//82
f 421//83 423//83 424//83
f 425//84 426//84 427//84
f 425//84 427//84 428//84
f 429//85 430//85 431//85
f 429//86 431//86 432//86
f 434//87 444//87 433//87
f 444//88 434//88 443//88
f 443//88 434//88 435//88
f 443//88 435//88 442//88
f 442//88 435//88 436//88
f 442//88 436//88 441//88
f 441//88 436//88 437//88
f 441//88 437//88 440//88
f 440//88 437//88 438//88
f 440//88 438//88 439//88
f 447//89 445//89 446//89
f 445//89 447//89 448//89
f 445//89 448//89 456//89
f 456//89 448//89 449//89
f 456//89 449//89 455//89
f 455//89 449//89 450//89
f 455//89 450//89 454//89
f 454//89 450//89 451//89
f 454//89 451//89 453//89
f 453//89 451//89 452//89
s 1
f 25//7 26//7 27//7
f 81//4 82//4 83//4
f 193//42 194//42 195//42
f 197//43 199//43 200//43
f 369//4 370//4 371//4
