# Blender v2.93.5 OBJ File: ''
# www.blender.org
mtllib test_planes.mtl
o Plane.000_Plane
v -1.000000 0.000000 3.021285
v 1.000000 0.000000 3.021285
v -1.000000 0.000000 1.021285
v 1.000000 0.000000 1.021285
vt 1.000000 0.000000
vt 0.000000 1.000000
vt 0.000000 0.000000
vt 1.000000 1.000000
vn 0.0000 1.0000 0.0000
usemtl Material.000
s off
f 2/1/1 3/2/1 1/3/1
f 2/1/1 4/4/1 3/2/1
o Plane.001
v -1.000000 0.000000 -1.075470
v 1.000000 0.000000 -1.075470
v -1.000000 0.000000 -3.075470
v 1.000000 0.000000 -3.075470
vt 1.000000 0.000000
vt 0.000000 1.000000
vt 0.000000 0.000000
vt 1.000000 1.000000
vn 0.0000 1.0000 0.0000
usemtl Material.001
s off
f 6/5/2 7/6/2 5/7/2
f 6/5/2 8/8/2 7/6/2
