# Blender v3.3.1 OBJ File: ''
# www.blender.org
mtllib arrow.mtl
o Cylinder
v 0.000000 1.909090 -0.497581
v 0.000000 4.909091 -0.000000
v 0.097073 1.909090 -0.488020
v 0.190416 1.909090 -0.459705
v 0.276441 1.909090 -0.413723
v 0.351843 1.909090 -0.351843
v 0.413723 1.909090 -0.276441
v 0.459705 1.909090 -0.190416
v 0.488020 1.909090 -0.097073
v 0.497581 1.909090 0.000000
v 0.488020 1.909090 0.097073
v 0.459705 1.909090 0.190416
v 0.413723 1.909090 0.276441
v 0.351843 1.909090 0.351843
v 0.276441 1.909090 0.413723
v 0.190416 1.909090 0.459705
v 0.097073 1.909090 0.488020
v 0.000000 1.909090 0.497581
v -0.097073 1.909090 0.488020
v -0.190416 1.909090 0.459705
v -0.276441 1.909090 0.413723
v -0.351843 1.909090 0.351843
v -0.413723 1.909090 0.276441
v -0.459705 1.909090 0.190416
v -0.488020 1.909090 0.097073
v -0.497581 1.909090 0.000000
v -0.488020 1.909090 -0.097073
v -0.459705 1.909090 -0.190416
v -0.413723 1.909090 -0.276441
v -0.351843 1.909090 -0.351843
v -0.276441 1.909090 -0.413723
v -0.190416 1.909090 -0.459705
v -0.097073 1.909090 -0.488020
v 0.000000 1.909090 -1.000000
v 0.195090 1.909090 -0.980785
v 0.382683 1.909090 -0.923880
v 0.555570 1.909090 -0.831470
v 0.707107 1.909090 -0.707107
v 0.831470 1.909090 -0.555570
v 0.923880 1.909090 -0.382683
v 0.980785 1.909090 -0.195090
v 1.000000 1.909090 0.000000
v 0.980785 1.909090 0.195090
v 0.923880 1.909090 0.382683
v 0.831470 1.909090 0.555570
v 0.707107 1.909090 0.707107
v 0.555570 1.909090 0.831470
v 0.382683 1.909090 0.923880
v 0.195090 1.909090 0.980785
v 0.000000 1.909090 1.000000
v -0.195090 1.909090 0.980785
v -0.382683 1.909090 0.923880
v -0.555570 1.909090 0.831470
v -0.707107 1.909090 0.707107
v -0.831470 1.909090 0.555570
v -0.923880 1.909090 0.382683
v -0.980785 1.909090 0.195090
v -1.000000 1.909090 0.000000
v -0.980785 1.909090 -0.195090
v -0.923880 1.909090 -0.382683
v -0.831470 1.909090 -0.555570
v -0.707107 1.909090 -0.707107
v -0.555570 1.909090 -0.831470
v -0.382683 1.909090 -0.923880
v -0.195090 1.909090 -0.980785
v -0.000000 -3.000000 -0.497581
v 0.097073 -3.000000 -0.488020
v 0.190416 -3.000000 -0.459705
v 0.276441 -3.000000 -0.413723
v 0.351843 -3.000000 -0.351843
v 0.413723 -3.000000 -0.276441
v 0.459705 -3.000000 -0.190416
v 0.488020 -3.000000 -0.097073
v 0.497581 -3.000000 0.000000
v 0.488020 -3.000000 0.097073
v 0.459705 -3.000000 0.190416
v 0.413723 -3.000000 0.276441
v 0.351843 -3.000000 0.351843
v 0.276441 -3.000000 0.413723
v 0.190416 -3.000000 0.459705
v 0.097073 -3.000000 0.488020
v -0.000000 -3.000000 0.497581
v -0.097073 -3.000000 0.488020
v -0.190416 -3.000000 0.459705
v -0.276441 -3.000000 0.413723
v -0.351843 -3.000000 0.351843
v -0.413723 -3.000000 0.276441
v -0.459705 -3.000000 0.190416
v -0.488020 -3.000000 0.097073
v -0.497581 -3.000000 0.000000
v -0.488020 -3.000000 -0.097073
v -0.459705 -3.000000 -0.190416
v -0.413723 -3.000000 -0.276441
v -0.351843 -3.000000 -0.351843
v -0.276441 -3.000000 -0.413723
v -0.190416 -3.000000 -0.459705
v -0.097073 -3.000000 -0.488020
vt 1.000000 0.500000
vt 0.968750 1.000000
vt 0.968750 0.500000
vt 0.937500 1.000000
vt 0.937500 0.500000
vt 0.906250 1.000000
vt 0.906250 0.500000
vt 0.875000 1.000000
vt 0.875000 0.500000
vt 0.843750 1.000000
vt 0.843750 0.500000
vt 0.812500 1.000000
vt 0.812500 0.500000
vt 0.781250 1.000000
vt 0.781250 0.500000
vt 0.750000 1.000000
vt 0.750000 0.500000
vt 0.718750 1.000000
vt 0.718750 0.500000
vt 0.687500 1.000000
vt 0.687500 0.500000
vt 0.656250 1.000000
vt 0.656250 0.500000
vt 0.625000 1.000000
vt 0.625000 0.500000
vt 0.593750 1.000000
vt 0.593750 0.500000
vt 0.562500 1.000000
vt 0.562500 0.500000
vt 0.531250 1.000000
vt 0.531250 0.500000
vt 0.500000 1.000000
vt 0.500000 0.500000
vt 0.468750 1.000000
vt 0.468750 0.500000
vt 0.437500 1.000000
vt 0.437500 0.500000
vt 0.406250 1.000000
vt 0.406250 0.500000
vt 0.375000 1.000000
vt 0.375000 0.500000
vt 0.343750 1.000000
vt 0.343750 0.500000
vt 0.312500 1.000000
vt 0.312500 0.500000
vt 0.281250 1.000000
vt 0.281250 0.500000
vt 0.250000 1.000000
vt 0.250000 0.500000
vt 0.218750 1.000000
vt 0.218750 0.500000
vt 0.187500 1.000000
vt 0.187500 0.500000
vt 0.156250 1.000000
vt 0.156250 0.500000
vt 0.125000 1.000000
vt 0.125000 0.500000
vt 0.093750 1.000000
vt 0.093750 0.500000
vt 0.062500 1.000000
vt 0.062500 0.500000
vt 0.031250 1.000000
vt 0.031250 0.500000
vt 0.000000 1.000000
vt 0.000000 0.500000
vt 0.849293 0.183654
vt 0.834442 0.165558
vt 0.834442 0.165558
vt 0.849293 0.183654
vt 0.773297 0.367125
vt 0.750000 0.369419
vt 0.750000 0.490000
vt 0.796822 0.485388
vt 0.795700 0.360329
vt 0.841844 0.471731
vt 0.816346 0.349294
vt 0.883337 0.449553
vt 0.834442 0.334442
vt 0.919706 0.419706
vt 0.849293 0.316346
vt 0.949553 0.383337
vt 0.860329 0.295700
vt 0.971731 0.341844
vt 0.867125 0.273298
vt 0.985388 0.296822
vt 0.869419 0.250000
vt 0.990000 0.250000
vt 0.867125 0.226702
vt 0.985388 0.203178
vt 0.860329 0.204300
vt 0.971731 0.158156
vt 0.949553 0.116663
vt 0.919706 0.080294
vt 0.816346 0.150706
vt 0.883337 0.050447
vt 0.795700 0.139671
vt 0.841844 0.028269
vt 0.773297 0.132875
vt 0.796822 0.014612
vt 0.750000 0.130581
vt 0.750000 0.010000
vt 0.726702 0.132875
vt 0.703178 0.014612
vt 0.704300 0.139671
vt 0.658156 0.028269
vt 0.683654 0.150706
vt 0.616663 0.050447
vt 0.665558 0.165558
vt 0.580294 0.080294
vt 0.650706 0.183654
vt 0.550447 0.116663
vt 0.639671 0.204300
vt 0.528269 0.158156
vt 0.632875 0.226702
vt 0.514612 0.203178
vt 0.630581 0.250000
vt 0.510000 0.250000
vt 0.632875 0.273298
vt 0.514612 0.296822
vt 0.639671 0.295700
vt 0.528269 0.341844
vt 0.650706 0.316346
vt 0.550447 0.383337
vt 0.665558 0.334442
vt 0.580294 0.419706
vt 0.683654 0.349294
vt 0.616663 0.449553
vt 0.704300 0.360329
vt 0.658156 0.471731
vt 0.726702 0.367125
vt 0.703178 0.485388
vt 0.750000 0.369419
vt 0.773297 0.367125
vt 0.795700 0.360329
vt 0.816346 0.349294
vt 0.834442 0.334442
vt 0.849293 0.316346
vt 0.860329 0.295700
vt 0.867125 0.273298
vt 0.869419 0.250000
vt 0.867125 0.226702
vt 0.860329 0.204300
vt 0.816346 0.150706
vt 0.795700 0.139671
vt 0.773297 0.132875
vt 0.750000 0.130581
vt 0.726702 0.132875
vt 0.704300 0.139671
vt 0.683654 0.150706
vt 0.665558 0.165558
vt 0.650706 0.183654
vt 0.639671 0.204300
vt 0.632875 0.226702
vt 0.630581 0.250000
vt 0.632875 0.273298
vt 0.639671 0.295700
vt 0.650706 0.316346
vt 0.665558 0.334442
vt 0.683654 0.349294
vt 0.704300 0.360329
vt 0.726702 0.367125
vn 0.0930 0.3149 -0.9446
vn 0.2755 0.3149 -0.9083
vn 0.4474 0.3149 -0.8371
vn 0.6021 0.3149 -0.7337
vn 0.7337 0.3149 -0.6021
vn 0.8371 0.3149 -0.4474
vn 0.9083 0.3149 -0.2755
vn 0.9446 0.3149 -0.0930
vn 0.9446 0.3149 0.0930
vn 0.9083 0.3149 0.2755
vn 0.8371 0.3149 0.4474
vn 0.7337 0.3149 0.6021
vn 0.6021 0.3149 0.7337
vn 0.4474 0.3149 0.8371
vn 0.2755 0.3149 0.9083
vn 0.0930 0.3149 0.9446
vn -0.0930 0.3149 0.9446
vn -0.2755 0.3149 0.9083
vn -0.4474 0.3149 0.8371
vn -0.6021 0.3149 0.7337
vn -0.7337 0.3149 0.6021
vn -0.8371 0.3149 0.4474
vn -0.9083 0.3149 0.2755
vn -0.9446 0.3149 0.0930
vn -0.9446 0.3149 -0.0930
vn -0.9083 0.3149 -0.2755
vn -0.8371 0.3149 -0.4474
vn -0.7337 0.3149 -0.6021
vn -0.6021 0.3149 -0.7337
vn -0.4474 0.3149 -0.8371
vn -0.2755 0.3149 -0.9083
vn -0.0930 0.3149 -0.9446
vn 0.7730 0.0000 0.6344
vn 0.0000 -1.0000 -0.0000
vn -0.9569 0.0000 -0.2903
vn 0.6344 -0.0000 0.7730
vn -0.8819 0.0000 -0.4714
vn 0.4714 -0.0000 0.8819
vn 0.0980 -0.0000 -0.9952
vn -0.7730 0.0000 -0.6344
vn 0.2903 0.0000 0.9569
vn 0.2903 0.0000 -0.9569
vn -0.6344 0.0000 -0.7730
vn 0.0980 -0.0000 0.9952
vn 0.4714 -0.0000 -0.8819
vn -0.4714 0.0000 -0.8819
vn -0.0980 0.0000 0.9952
vn 0.6344 -0.0000 -0.7730
vn -0.2903 0.0000 -0.9569
vn -0.2903 0.0000 0.9569
vn 0.7730 0.0000 -0.6344
vn -0.0980 0.0000 -0.9952
vn -0.4714 0.0000 0.8819
vn 0.8819 -0.0000 -0.4714
vn -0.6344 0.0000 0.7730
vn 0.9569 -0.0000 -0.2903
vn -0.7730 0.0000 0.6344
vn 0.9952 -0.0000 -0.0980
vn -0.8819 0.0000 0.4714
vn 0.9952 -0.0000 0.0980
vn -0.9569 0.0000 0.2903
vn 0.9569 -0.0000 0.2903
vn -0.9952 0.0000 0.0980
vn 0.8819 -0.0000 0.4714
vn -0.9952 0.0000 -0.0980
usemtl None
s off
f 34/1/1 2/2/1 35/3/1
f 35/3/2 2/4/2 36/5/2
f 36/5/3 2/6/3 37/7/3
f 37/7/4 2/8/4 38/9/4
f 38/9/5 2/10/5 39/11/5
f 39/11/6 2/12/6 40/13/6
f 40/13/7 2/14/7 41/15/7
f 41/15/8 2/16/8 42/17/8
f 42/17/9 2/18/9 43/19/9
f 43/19/10 2/20/10 44/21/10
f 44/21/11 2/22/11 45/23/11
f 45/23/12 2/24/12 46/25/12
f 46/25/13 2/26/13 47/27/13
f 47/27/14 2/28/14 48/29/14
f 48/29/15 2/30/15 49/31/15
f 49/31/16 2/32/16 50/33/16
f 50/33/17 2/34/17 51/35/17
f 51/35/18 2/36/18 52/37/18
f 52/37/19 2/38/19 53/39/19
f 53/39/20 2/40/20 54/41/20
f 54/41/21 2/42/21 55/43/21
f 55/43/22 2/44/22 56/45/22
f 56/45/23 2/46/23 57/47/23
f 57/47/24 2/48/24 58/49/24
f 58/49/25 2/50/25 59/51/25
f 59/51/26 2/52/26 60/53/26
f 60/53/27 2/54/27 61/55/27
f 61/55/28 2/56/28 62/57/28
f 62/57/29 2/58/29 63/59/29
f 63/59/30 2/60/30 64/61/30
f 64/61/31 2/62/31 65/63/31
f 65/63/32 2/64/32 34/65/32
f 13/66/33 14/67/33 78/68/33 77/69/33
f 3/70/34 1/71/34 34/72/34 35/73/34
f 4/74/34 3/70/34 35/73/34 36/75/34
f 5/76/34 4/74/34 36/75/34 37/77/34
f 6/78/34 5/76/34 37/77/34 38/79/34
f 7/80/34 6/78/34 38/79/34 39/81/34
f 8/82/34 7/80/34 39/81/34 40/83/34
f 9/84/34 8/82/34 40/83/34 41/85/34
f 10/86/34 9/84/34 41/85/34 42/87/34
f 11/88/34 10/86/34 42/87/34 43/89/34
f 12/90/34 11/88/34 43/89/34 44/91/34
f 13/66/34 12/90/34 44/91/34 45/92/34
f 14/67/34 13/66/34 45/92/34 46/93/34
f 15/94/34 14/67/34 46/93/34 47/95/34
f 16/96/34 15/94/34 47/95/34 48/97/34
f 17/98/34 16/96/34 48/97/34 49/99/34
f 18/100/34 17/98/34 49/99/34 50/101/34
f 19/102/34 18/100/34 50/101/34 51/103/34
f 20/104/34 19/102/34 51/103/34 52/105/34
f 21/106/34 20/104/34 52/105/34 53/107/34
f 22/108/34 21/106/34 53/107/34 54/109/34
f 23/110/34 22/108/34 54/109/34 55/111/34
f 24/112/34 23/110/34 55/111/34 56/113/34
f 25/114/34 24/112/34 56/113/34 57/115/34
f 26/116/34 25/114/34 57/115/34 58/117/34
f 27/118/34 26/116/34 58/117/34 59/119/34
f 28/120/34 27/118/34 59/119/34 60/121/34
f 29/122/34 28/120/34 60/121/34 61/123/34
f 30/124/34 29/122/34 61/123/34 62/125/34
f 31/126/34 30/124/34 62/125/34 63/127/34
f 32/128/34 31/126/34 63/127/34 64/129/34
f 33/130/34 32/128/34 64/129/34 65/131/34
f 1/71/34 33/130/34 65/131/34 34/72/34
f 66/132/34 67/133/34 68/134/34 69/135/34 70/136/34 71/137/34 72/138/34 73/139/34 74/140/34 75/141/34 76/142/34 77/69/34 78/68/34 79/143/34 80/144/34 81/145/34 82/146/34 83/147/34 84/148/34 85/149/34 86/150/34 87/151/34 88/152/34 89/153/34 90/154/34 91/155/34 92/156/34 93/157/34 94/158/34 95/159/34 96/160/34 97/161/34
f 27/118/35 28/120/35 92/156/35 91/155/35
f 14/67/36 15/94/36 79/143/36 78/68/36
f 28/120/37 29/122/37 93/157/37 92/156/37
f 15/94/38 16/96/38 80/144/38 79/143/38
f 1/71/39 3/70/39 67/133/39 66/132/39
f 29/122/40 30/124/40 94/158/40 93/157/40
f 16/96/41 17/98/41 81/145/41 80/144/41
f 3/70/42 4/74/42 68/134/42 67/133/42
f 30/124/43 31/126/43 95/159/43 94/158/43
f 17/98/44 18/100/44 82/146/44 81/145/44
f 4/74/45 5/76/45 69/135/45 68/134/45
f 31/126/46 32/128/46 96/160/46 95/159/46
f 18/100/47 19/102/47 83/147/47 82/146/47
f 5/76/48 6/78/48 70/136/48 69/135/48
f 32/128/49 33/130/49 97/161/49 96/160/49
f 19/102/50 20/104/50 84/148/50 83/147/50
f 6/78/51 7/80/51 71/137/51 70/136/51
f 33/130/52 1/71/52 66/132/52 97/161/52
f 20/104/53 21/106/53 85/149/53 84/148/53
f 7/80/54 8/82/54 72/138/54 71/137/54
f 21/106/55 22/108/55 86/150/55 85/149/55
f 8/82/56 9/84/56 73/139/56 72/138/56
f 22/108/57 23/110/57 87/151/57 86/150/57
f 9/84/58 10/86/58 74/140/58 73/139/58
f 23/110/59 24/112/59 88/152/59 87/151/59
f 10/86/60 11/88/60 75/141/60 74/140/60
f 24/112/61 25/114/61 89/153/61 88/152/61
f 11/88/62 12/90/62 76/142/62 75/141/62
f 25/114/63 26/116/63 90/154/63 89/153/63
f 12/90/64 13/66/64 77/69/64 76/142/64
f 26/116/65 27/118/65 91/155/65 90/154/65
